<?xml version="1.0" standalone="no"?>
<!DOCTYPE svg PUBLIC "-//W3C//DTD SVG 20010904//EN"
 "http://www.w3.org/TR/2001/REC-SVG-20010904/DTD/svg10.dtd">
<svg version="1.0" xmlns="http://www.w3.org/2000/svg"
 width="842.000000pt" height="647.000000pt" viewBox="0 0 842.000000 647.000000"
 preserveAspectRatio="xMidYMid meet">

<g transform="translate(0.000000,647.000000) scale(0.100000,-0.100000)"
fill="#000000" stroke="none">
<path d="M4030 6114 c-19 -2 -73 -9 -120 -15 -598 -73 -1177 -408 -1538 -891
-597 -794 -631 -1858 -87 -2677 93 -141 177 -241 316 -377 349 -341 767 -549
1264 -631 155 -25 535 -25 690 0 497 82 915 290 1264 631 139 136 223 236 316
377 599 902 490 2102 -261 2879 -362 374 -807 605 -1324 685 -100 15 -445 28
-520 19z"/>
</g>
</svg>
