<svg fill="none" version="1.1" id="Layer_1" xmlns="http://www.w3.org/2000/svg" xmlns:xlink="http://www.w3.org/1999/xlink" x="0px" y="0px"
	 width="100%" viewBox="0 0 842 647" enable-background="new 0 0 842 647" xml:space="preserve">
<path opacity="1.000000" stroke="none" 
	d="
M585.000000,648.000000 
	C390.000000,648.000000 195.500000,648.000000 1.000000,648.000000 
	C1.000000,432.333344 1.000000,216.666672 1.000000,1.000000 
	C281.666656,1.000000 562.333313,1.000000 843.000000,1.000000 
	C843.000000,216.666672 843.000000,432.333344 843.000000,648.000000 
	C757.166687,648.000000 671.333313,648.000000 585.000000,648.000000 
M469.407562,493.994110 
	C470.163971,493.698639 470.896576,493.255890 471.680237,493.129211 
	C490.718811,490.051788 508.479828,483.004852 525.591125,474.580872 
	C542.226685,466.391052 557.707031,456.210236 571.730713,443.874481 
	C586.870117,430.557251 600.674500,416.139191 612.195862,399.513824 
	C626.151855,379.375458 636.579529,357.571960 643.914612,334.266968 
	C650.522644,313.271912 653.551392,291.569275 653.727844,269.704071 
	C653.842346,255.523148 651.682800,241.277939 649.920532,227.139023 
	C647.542542,208.060059 641.484497,189.897675 633.654907,172.467758 
	C624.498291,152.083649 613.278381,132.759430 597.781006,116.448349 
	C586.889771,104.985252 575.845093,93.465309 563.589478,83.552559 
	C548.341553,71.219559 531.149231,61.682114 512.992981,53.913597 
	C489.950836,44.054543 465.968170,37.650059 441.090729,36.257004 
	C416.288605,34.868160 391.459290,35.673267 367.009033,41.872372 
	C340.838593,48.507614 316.434296,58.987244 293.959534,73.716942 
	C275.598328,85.750702 258.955536,100.070290 245.354431,117.379181 
	C235.944412,129.354446 226.901016,141.791275 219.235031,154.921677 
	C208.519501,173.275421 200.886215,193.132263 196.582443,214.039124 
	C194.257462,225.333481 192.194778,236.757111 191.189529,248.225479 
	C190.289108,258.497742 190.345169,268.963135 191.160706,279.249695 
	C192.255463,293.057983 193.475113,306.999939 196.457260,320.482819 
	C201.437607,342.999939 210.460449,364.109192 221.966843,384.176941 
	C235.957367,408.577209 254.339188,429.244690 275.804260,447.069672 
	C293.325165,461.619324 312.943512,472.979462 334.119293,481.651337 
	C361.259827,492.765900 389.552368,498.148499 418.707520,498.847595 
	C429.867493,499.115204 441.087067,497.873444 452.243347,496.903778 
	C457.716644,496.428070 463.107422,495.002777 469.407562,493.994110 
z"/>
<path fill="#99231B" opacity="1.000000" stroke="none" 
	d="
M468.971558,494.000671 
	C463.107422,495.002777 457.716644,496.428070 452.243347,496.903778 
	C441.087067,497.873444 429.867493,499.115204 418.707520,498.847595 
	C389.552368,498.148499 361.259827,492.765900 334.119293,481.651337 
	C312.943512,472.979462 293.325165,461.619324 275.804260,447.069672 
	C254.339188,429.244690 235.957367,408.577209 221.966843,384.176941 
	C210.460449,364.109192 201.437607,342.999939 196.457260,320.482819 
	C193.475113,306.999939 192.255463,293.057983 191.160706,279.249695 
	C190.345169,268.963135 190.289108,258.497742 191.189529,248.225479 
	C192.194778,236.757111 194.257462,225.333481 196.582443,214.039124 
	C200.886215,193.132263 208.519501,173.275421 219.235031,154.921677 
	C226.901016,141.791275 235.944412,129.354446 245.354431,117.379181 
	C258.955536,100.070290 275.598328,85.750702 293.959534,73.716942 
	C316.434296,58.987244 340.838593,48.507614 367.009033,41.872372 
	C391.459290,35.673267 416.288605,34.868160 441.090729,36.257004 
	C465.968170,37.650059 489.950836,44.054543 512.992981,53.913597 
	C531.149231,61.682114 548.341553,71.219559 563.589478,83.552559 
	C575.845093,93.465309 586.889771,104.985252 597.781006,116.448349 
	C613.278381,132.759430 624.498291,152.083649 633.654907,172.467758 
	C641.484497,189.897675 647.542542,208.060059 649.920532,227.139023 
	C651.682800,241.277939 653.842346,255.523148 653.727844,269.704071 
	C653.551392,291.569275 650.522644,313.271912 643.914612,334.266968 
	C636.579529,357.571960 626.151855,379.375458 612.195862,399.513824 
	C600.674500,416.139191 586.870117,430.557251 571.730713,443.874481 
	C557.707031,456.210236 542.226685,466.391052 525.591125,474.580872 
	C508.479828,483.004852 490.718811,490.051788 471.680237,493.129211 
	C470.896576,493.255890 470.163971,493.698639 468.971558,494.000671 
M372.674988,149.998917 
	C369.244476,150.333755 367.858856,148.810440 367.909790,145.351135 
	C367.931946,143.846848 367.314941,142.057053 366.387573,140.863708 
	C362.797333,136.243866 358.668579,132.933167 352.036285,133.909622 
	C347.469818,134.581924 342.724396,134.027847 338.058990,134.041092 
	C330.407349,134.062820 326.100525,138.390396 326.027405,146.004532 
	C325.974518,151.510666 325.817871,157.015823 325.688049,163.492676 
	C326.232971,163.553207 328.245331,163.772736 330.256683,164.000900 
	C338.165222,164.898056 346.073425,165.797943 353.981720,166.696808 
	C354.244873,167.416977 354.508026,168.137131 354.771210,168.857300 
	C351.363647,172.660965 347.917175,176.431015 344.582062,180.297180 
	C343.929077,181.054123 343.252869,182.238419 343.361450,183.131531 
	C344.014679,188.506866 344.893555,193.854797 345.732391,199.448502 
	C341.444885,199.977493 338.897339,200.276291 338.734772,204.653854 
	C338.558105,209.412628 341.343781,210.030991 345.000000,210.571259 
	C345.000000,224.498627 345.001587,238.135223 344.999329,251.771820 
	C344.998169,258.813019 344.995239,258.942474 337.947571,258.951385 
	C333.764740,258.956696 331.767822,260.558502 331.963806,264.887878 
	C332.136963,268.712341 331.744415,272.572296 332.063721,276.377808 
	C332.473297,281.259125 330.130280,283.028046 325.681396,282.999878 
	C324.181854,282.990387 322.682159,282.994873 321.182587,283.000732 
	C306.830261,283.056763 308.032349,281.373688 308.037720,296.087433 
	C308.040558,303.905029 308.031464,304.111725 300.429352,303.917206 
	C296.322266,303.812134 294.694580,305.091858 294.956818,309.305481 
	C295.148895,312.391968 294.817810,315.565704 294.285980,318.625092 
	C293.867950,321.029816 292.455017,323.268860 292.089661,325.673492 
	C291.693756,328.279327 292.024323,330.992096 291.994629,333.657715 
	C291.921631,340.215576 289.148804,342.971252 282.532013,342.992645 
	C273.367859,343.022278 264.202759,342.928101 255.039566,343.026062 
	C247.461624,343.107086 240.579941,348.344421 240.086945,355.131226 
	C239.388748,364.742676 238.920319,374.427094 239.288910,384.044495 
	C239.685867,394.402496 246.249985,399.985657 256.534515,399.997223 
	C267.531616,400.009583 278.528687,400.002502 289.525787,399.999359 
	C301.453644,399.995972 306.535553,395.206421 306.954681,383.312042 
	C307.053833,380.498505 307.883423,379.431854 310.892822,378.880920 
	C321.186951,376.996490 326.365173,368.375214 332.588196,361.280670 
	C333.371948,360.387207 332.978516,358.387085 332.985504,356.899017 
	C333.018311,349.901031 333.138489,342.898987 332.944733,335.906219 
	C332.842072,332.201355 334.252747,330.877808 337.915802,330.947693 
	C346.577026,331.112885 355.243561,331.000031 363.907928,331.000031 
	C410.895477,331.000000 457.883270,331.063660 504.870270,330.904755 
	C509.731903,330.888336 511.331848,332.391296 511.087769,337.193024 
	C510.741364,344.006958 510.878632,350.855103 511.073914,357.681061 
	C511.132843,359.740143 511.393829,362.680695 512.718140,363.669403 
	C520.174133,369.236176 524.249695,379.726471 535.741699,379.354340 
	C535.847351,380.505219 535.985413,381.313202 535.986084,382.121307 
	C535.995728,393.717560 544.395752,400.695160 554.600098,400.140350 
	C565.897034,399.526123 577.253357,400.038849 588.583435,399.986847 
	C596.899963,399.948669 603.103394,395.589447 603.918091,387.320374 
	C604.856323,377.797394 604.281616,368.112122 604.146484,358.500366 
	C604.012451,348.973297 597.918579,343.083771 588.342712,343.013824 
	C579.845459,342.951813 571.347290,343.003601 562.849548,342.999054 
	C554.180847,342.994385 552.043762,340.825104 551.981079,332.218597 
	C551.952087,328.239532 553.033936,323.450470 551.216187,320.509430 
	C549.357300,317.501740 548.982422,314.909546 548.975769,311.859863 
	C548.957275,303.376434 549.385559,303.776276 541.134949,304.060913 
	C537.240601,304.195251 535.630981,302.874634 535.910828,298.902100 
	C536.156067,295.420380 535.885620,291.905579 535.979919,288.409088 
	C536.080750,284.667908 534.508301,282.857544 530.633545,282.970428 
	C526.138550,283.101440 521.636230,283.043732 517.138184,282.985016 
	C513.112549,282.932495 511.052307,280.810516 511.007446,276.786072 
	C510.975891,273.953827 510.880066,271.114716 511.028839,268.290039 
	C511.200623,265.028229 509.759521,263.808746 506.580170,263.896362 
	C501.751801,264.029388 496.917053,263.928497 492.084991,263.928467 
	C453.428558,263.928223 414.772095,263.943817 376.115784,263.875397 
	C374.453735,263.872467 371.692963,263.531464 371.324921,262.602661 
	C369.847382,258.873627 367.039886,258.770264 363.964417,259.025085 
	C360.344482,259.325104 358.897217,257.945648 358.940735,254.182159 
	C359.094879,240.854141 359.019318,227.523224 358.983337,214.193512 
	C358.977051,211.863159 359.027344,210.149979 362.186737,209.691147 
	C363.328278,209.525375 364.702850,206.670731 364.813812,204.967667 
	C364.915009,203.414215 363.450928,200.374451 362.675842,200.374176 
	C357.847778,200.372452 357.730347,197.436539 358.005188,194.012939 
	C358.265045,190.776016 357.356720,186.041687 359.109100,184.628906 
	C362.455353,181.931091 360.211761,181.037201 358.752014,179.420120 
	C360.252289,179.015121 361.593109,178.653168 363.000031,178.273361 
	C363.000031,175.785248 362.996887,173.625931 363.000580,171.466614 
	C363.012726,164.425156 363.413727,164.094757 370.315186,163.965866 
	C373.443573,163.907440 376.565033,163.477402 379.164917,163.259842 
	C378.704498,159.560654 378.035919,156.997864 378.155609,154.472427 
	C378.322815,150.943314 377.043365,149.494644 372.674988,149.998917 
M503.748047,149.667206 
	C501.523926,145.122025 499.299805,140.576843 497.256592,136.401398 
	C492.964050,151.771500 485.088715,159.377319 468.933075,162.617172 
	C484.983612,165.190231 493.921783,174.375656 497.615967,190.286514 
	C500.887573,174.537674 509.887177,165.856094 525.149597,162.555481 
	C516.237122,160.419083 509.132477,157.075378 503.748047,149.667206 
M553.622864,133.066025 
	C556.894531,129.924881 560.166199,126.783730 563.232971,123.839317 
	C561.577515,122.800163 558.875427,121.635956 556.903564,119.720093 
	C554.834778,117.710114 553.466187,114.979424 552.528503,113.626717 
	C548.154480,117.529785 543.808411,121.407974 539.857727,124.933304 
	C545.639893,125.721672 549.448914,130.047272 551.511963,136.606491 
	C552.247803,135.353027 552.746826,134.503052 553.622864,133.066025 
z"/>
<path fill="#212121" opacity="1.000000" stroke="none" 
	d="
M373.119171,149.999390 
	C377.043365,149.494644 378.322815,150.943314 378.155609,154.472427 
	C378.035919,156.997864 378.704498,159.560654 379.164917,163.259842 
	C376.565033,163.477402 373.443573,163.907440 370.315186,163.965866 
	C363.413727,164.094757 363.012726,164.425156 363.000580,171.466614 
	C362.996887,173.625931 363.000031,175.785248 363.000031,178.273361 
	C361.593109,178.653168 360.252289,179.015121 358.752014,179.420120 
	C360.211761,181.037201 362.455353,181.931091 359.109100,184.628906 
	C357.356720,186.041687 358.265045,190.776016 358.005188,194.012939 
	C357.730347,197.436539 357.847778,200.372452 362.675842,200.374176 
	C363.450928,200.374451 364.915009,203.414215 364.813812,204.967667 
	C364.702850,206.670731 363.328278,209.525375 362.186737,209.691147 
	C359.027344,210.149979 358.977051,211.863159 358.983337,214.193512 
	C359.019318,227.523224 359.094879,240.854141 358.940735,254.182159 
	C358.897217,257.945648 360.344482,259.325104 363.964417,259.025085 
	C367.039886,258.770264 369.847382,258.873627 371.324921,262.602661 
	C371.692963,263.531464 374.453735,263.872467 376.115784,263.875397 
	C414.772095,263.943817 453.428558,263.928223 492.084991,263.928467 
	C496.917053,263.928497 501.751801,264.029388 506.580170,263.896362 
	C509.759521,263.808746 511.200623,265.028229 511.028839,268.290039 
	C510.880066,271.114716 510.975891,273.953827 511.007446,276.786072 
	C511.052307,280.810516 513.112549,282.932495 517.138184,282.985016 
	C521.636230,283.043732 526.138550,283.101440 530.633545,282.970428 
	C534.508301,282.857544 536.080750,284.667908 535.979919,288.409088 
	C535.885620,291.905579 536.156067,295.420380 535.910828,298.902100 
	C535.630981,302.874634 537.240601,304.195251 541.134949,304.060913 
	C549.385559,303.776276 548.957275,303.376434 548.975769,311.859863 
	C548.982422,314.909546 549.357300,317.501740 551.216187,320.509430 
	C553.033936,323.450470 551.952087,328.239532 551.981079,332.218597 
	C552.043762,340.825104 554.180847,342.994385 562.849548,342.999054 
	C571.347290,343.003601 579.845459,342.951813 588.342712,343.013824 
	C597.918579,343.083771 604.012451,348.973297 604.146484,358.500366 
	C604.281616,368.112122 604.856323,377.797394 603.918091,387.320374 
	C603.103394,395.589447 596.899963,399.948669 588.583435,399.986847 
	C577.253357,400.038849 565.897034,399.526123 554.600098,400.140350 
	C544.395752,400.695160 535.995728,393.717560 535.986084,382.121307 
	C535.985413,381.313202 535.847351,380.505219 535.741699,379.354340 
	C524.249695,379.726471 520.174133,369.236176 512.718140,363.669403 
	C511.393829,362.680695 511.132843,359.740143 511.073914,357.681061 
	C510.878632,350.855103 510.741364,344.006958 511.087769,337.193024 
	C511.331848,332.391296 509.731903,330.888336 504.870270,330.904755 
	C457.883270,331.063660 410.895477,331.000000 363.907928,331.000031 
	C355.243561,331.000031 346.577026,331.112885 337.915802,330.947693 
	C334.252747,330.877808 332.842072,332.201355 332.944733,335.906219 
	C333.138489,342.898987 333.018311,349.901031 332.985504,356.899017 
	C332.978516,358.387085 333.371948,360.387207 332.588196,361.280670 
	C326.365173,368.375214 321.186951,376.996490 310.892822,378.880920 
	C307.883423,379.431854 307.053833,380.498505 306.954681,383.312042 
	C306.535553,395.206421 301.453644,399.995972 289.525787,399.999359 
	C278.528687,400.002502 267.531616,400.009583 256.534515,399.997223 
	C246.249985,399.985657 239.685867,394.402496 239.288910,384.044495 
	C238.920319,374.427094 239.388748,364.742676 240.086945,355.131226 
	C240.579941,348.344421 247.461624,343.107086 255.039566,343.026062 
	C264.202759,342.928101 273.367859,343.022278 282.532013,342.992645 
	C289.148804,342.971252 291.921631,340.215576 291.994629,333.657715 
	C292.024323,330.992096 291.693756,328.279327 292.089661,325.673492 
	C292.455017,323.268860 293.867950,321.029816 294.285980,318.625092 
	C294.817810,315.565704 295.148895,312.391968 294.956818,309.305481 
	C294.694580,305.091858 296.322266,303.812134 300.429352,303.917206 
	C308.031464,304.111725 308.040558,303.905029 308.037720,296.087433 
	C308.032349,281.373688 306.830261,283.056763 321.182587,283.000732 
	C322.682159,282.994873 324.181854,282.990387 325.681396,282.999878 
	C330.130280,283.028046 332.473297,281.259125 332.063721,276.377808 
	C331.744415,272.572296 332.136963,268.712341 331.963806,264.887878 
	C331.767822,260.558502 333.764740,258.956696 337.947571,258.951385 
	C344.995239,258.942474 344.998169,258.813019 344.999329,251.771820 
	C345.001587,238.135223 345.000000,224.498627 345.000000,210.571259 
	C341.343781,210.030991 338.558105,209.412628 338.734772,204.653854 
	C338.897339,200.276291 341.444885,199.977493 345.732391,199.448502 
	C344.893555,193.854797 344.014679,188.506866 343.361450,183.131531 
	C343.252869,182.238419 343.929077,181.054123 344.582062,180.297180 
	C347.917175,176.431015 351.363647,172.660965 354.771210,168.857300 
	C354.508026,168.137131 354.244873,167.416977 353.981720,166.696808 
	C346.073425,165.797943 338.165222,164.898056 330.256683,164.000900 
	C328.245331,163.772736 326.232971,163.553207 325.688049,163.492676 
	C325.817871,157.015823 325.974518,151.510666 326.027405,146.004532 
	C326.100525,138.390396 330.407349,134.062820 338.058990,134.041092 
	C342.724396,134.027847 347.469818,134.581924 352.036285,133.909622 
	C358.668579,132.933167 362.797333,136.243866 366.387573,140.863708 
	C367.314941,142.057053 367.931946,143.846848 367.909790,145.351135 
	C367.858856,148.810440 369.244476,150.333755 373.119171,149.999390 
z"/>
<path fill="#232121" opacity="1.000000" stroke="none" 
	d="
M503.928284,149.980438 
	C509.132477,157.075378 516.237122,160.419083 525.149597,162.555481 
	C509.887177,165.856094 500.887573,174.537674 497.615967,190.286514 
	C493.921783,174.375656 484.983612,165.190231 468.933075,162.617172 
	C485.088715,159.377319 492.964050,151.771500 497.256592,136.401398 
	C499.299805,140.576843 501.523926,145.122025 503.928284,149.980438 
z"/>
<path fill="#252121" opacity="1.000000" stroke="none" 
	d="
M553.434326,133.359558 
	C552.746826,134.503052 552.247803,135.353027 551.511963,136.606491 
	C549.448914,130.047272 545.639893,125.721672 539.857727,124.933304 
	C543.808411,121.407974 548.154480,117.529785 552.528503,113.626717 
	C553.466187,114.979424 554.834778,117.710114 556.903564,119.720093 
	C558.875427,121.635956 561.577515,122.800163 563.232971,123.839317 
	C560.166199,126.783730 556.894531,129.924881 553.434326,133.359558 
z"/>
</svg>